<?xml version="1.0" encoding="UTF-8" standalone="no"?>
<svg
   xmlns:dc="http://purl.org/dc/elements/1.1/"
   xmlns:cc="http://creativecommons.org/ns#"
   xmlns:rdf="http://www.w3.org/1999/02/22-rdf-syntax-ns#"
   xmlns:svg="http://www.w3.org/2000/svg"
   xmlns="http://www.w3.org/2000/svg"
   xmlns:sodipodi="http://sodipodi.sourceforge.net/DTD/sodipodi-0.dtd"
   xmlns:inkscape="http://www.inkscape.org/namespaces/inkscape"
   width="160mm"
   height="90mm"
   viewBox="0 0 16000 9000"
   version="1.1"
   stroke-width="28.222"
   stroke-linejoin="round"
   xml:space="preserve"
   id="svg218"
   sodipodi:docname="Image ecart prix.svg"
   inkscape:version="0.92.1 r15371"><metadata
     id="metadata224"><rdf:RDF><cc:Work
         rdf:about=""><dc:format>image/svg+xml</dc:format><dc:type
           rdf:resource="http://purl.org/dc/dcmitype/StillImage" /></cc:Work></rdf:RDF></metadata><defs
     id="defs222" /><sodipodi:namedview
     pagecolor="#ffffff"
     bordercolor="#666666"
     borderopacity="1"
     objecttolerance="10"
     gridtolerance="10"
     guidetolerance="10"
     inkscape:pageopacity="0"
     inkscape:pageshadow="2"
     inkscape:window-width="1280"
     inkscape:window-height="1000"
     id="namedview220"
     showgrid="false"
     inkscape:zoom="1.2391975"
     inkscape:cx="289.57214"
     inkscape:cy="141.49401"
     inkscape:window-x="0"
     inkscape:window-y="24"
     inkscape:window-maximized="1"
     inkscape:current-layer="svg218" /><path
     fill="rgb(255,255,255)"
     stroke="none"
     d="M 7674,8986 L 48,8986 48,0 15300,0 15300,8986 7674,8986 Z"
     id="path2" /><path
     fill="none"
     stroke="rgb(179,179,179)"
     stroke-linejoin="round"
     d="M 6727,6861 L 1802,6861 1802,1273 11652,1273 11652,6861 6727,6861 Z"
     id="path4" /><path
     fill="none"
     stroke="rgb(179,179,179)"
     stroke-linejoin="round"
     d="M 11652,6860 L 1802,6860"
     id="path6" /><path
     fill="none"
     stroke="rgb(179,179,179)"
     stroke-linejoin="round"
     d="M 11652,5928 L 1802,5928"
     id="path8" /><path
     fill="none"
     stroke="rgb(179,179,179)"
     stroke-linejoin="round"
     d="M 11652,4997 L 1802,4997"
     id="path10" /><path
     fill="none"
     stroke="rgb(179,179,179)"
     stroke-linejoin="round"
     d="M 11652,4066 L 1802,4066"
     id="path12" /><path
     fill="none"
     stroke="rgb(179,179,179)"
     stroke-linejoin="round"
     d="M 11652,3135 L 1802,3135"
     id="path14" /><path
     fill="none"
     stroke="rgb(179,179,179)"
     stroke-linejoin="round"
     d="M 11652,2203 L 1802,2203"
     id="path16" /><path
     fill="none"
     stroke="rgb(179,179,179)"
     stroke-linejoin="round"
     d="M 11652,1271 L 1802,1271"
     id="path18" /><path
     fill="none"
     stroke="rgb(179,179,179)"
     stroke-linejoin="round"
     d="M 1802,7010 L 1802,6860"
     id="path20" /><path
     fill="none"
     stroke="rgb(179,179,179)"
     stroke-linejoin="round"
     d="M 1802,7010 L 1802,6860"
     id="path22" /><path
     fill="none"
     stroke="rgb(179,179,179)"
     stroke-linejoin="round"
     d="M 3209,7010 L 3209,6860"
     id="path24" /><path
     fill="none"
     stroke="rgb(179,179,179)"
     stroke-linejoin="round"
     d="M 3209,7010 L 3209,6860"
     id="path26" /><path
     fill="none"
     stroke="rgb(179,179,179)"
     stroke-linejoin="round"
     d="M 4616,7010 L 4616,6860"
     id="path28" /><path
     fill="none"
     stroke="rgb(179,179,179)"
     stroke-linejoin="round"
     d="M 4616,7010 L 4616,6860"
     id="path30" /><path
     fill="none"
     stroke="rgb(179,179,179)"
     stroke-linejoin="round"
     d="M 6023,7010 L 6023,6860"
     id="path32" /><path
     fill="none"
     stroke="rgb(179,179,179)"
     stroke-linejoin="round"
     d="M 6023,7010 L 6023,6860"
     id="path34" /><path
     fill="none"
     stroke="rgb(179,179,179)"
     stroke-linejoin="round"
     d="M 7430,7010 L 7430,6860"
     id="path36" /><path
     fill="none"
     stroke="rgb(179,179,179)"
     stroke-linejoin="round"
     d="M 7430,7010 L 7430,6860"
     id="path38" /><path
     fill="none"
     stroke="rgb(179,179,179)"
     stroke-linejoin="round"
     d="M 8837,7010 L 8837,6860"
     id="path40" /><path
     fill="none"
     stroke="rgb(179,179,179)"
     stroke-linejoin="round"
     d="M 8837,7010 L 8837,6860"
     id="path42" /><path
     fill="none"
     stroke="rgb(179,179,179)"
     stroke-linejoin="round"
     d="M 10244,7010 L 10244,6860"
     id="path44" /><path
     fill="none"
     stroke="rgb(179,179,179)"
     stroke-linejoin="round"
     d="M 10244,7010 L 10244,6860"
     id="path46" /><path
     fill="none"
     stroke="rgb(179,179,179)"
     stroke-linejoin="round"
     d="M 11652,7010 L 11652,6860"
     id="path48" /><path
     fill="none"
     stroke="rgb(179,179,179)"
     stroke-linejoin="round"
     d="M 11652,7010 L 11652,6860"
     id="path50" /><path
     fill="none"
     stroke="rgb(179,179,179)"
     stroke-linejoin="round"
     d="M 1802,6860 L 11652,6860"
     id="path52" /><path
     fill="none"
     stroke="rgb(179,179,179)"
     stroke-linejoin="round"
     d="M 1659,6860 L 1802,6860"
     id="path54" /><path
     fill="none"
     stroke="rgb(179,179,179)"
     stroke-linejoin="round"
     d="M 1659,6860 L 1802,6860"
     id="path56" /><path
     fill="none"
     stroke="rgb(179,179,179)"
     stroke-linejoin="round"
     d="M 1659,5928 L 1802,5928"
     id="path58" /><path
     fill="none"
     stroke="rgb(179,179,179)"
     stroke-linejoin="round"
     d="M 1659,5928 L 1802,5928"
     id="path60" /><path
     fill="none"
     stroke="rgb(179,179,179)"
     stroke-linejoin="round"
     d="M 1659,4997 L 1802,4997"
     id="path62" /><path
     fill="none"
     stroke="rgb(179,179,179)"
     stroke-linejoin="round"
     d="M 1659,4997 L 1802,4997"
     id="path64" /><path
     fill="none"
     stroke="rgb(179,179,179)"
     stroke-linejoin="round"
     d="M 1659,4066 L 1802,4066"
     id="path66" /><path
     fill="none"
     stroke="rgb(179,179,179)"
     stroke-linejoin="round"
     d="M 1659,4066 L 1802,4066"
     id="path68" /><path
     fill="none"
     stroke="rgb(179,179,179)"
     stroke-linejoin="round"
     d="M 1659,3134 L 1802,3134"
     id="path70" /><path
     fill="none"
     stroke="rgb(179,179,179)"
     stroke-linejoin="round"
     d="M 1659,3134 L 1802,3134"
     id="path72" /><path
     fill="none"
     stroke="rgb(179,179,179)"
     stroke-linejoin="round"
     d="M 1659,2203 L 1802,2203"
     id="path74" /><path
     fill="none"
     stroke="rgb(179,179,179)"
     stroke-linejoin="round"
     d="M 1659,2203 L 1802,2203"
     id="path76" /><path
     fill="none"
     stroke="rgb(179,179,179)"
     stroke-linejoin="round"
     d="M 1659,1271 L 1802,1271"
     id="path78" /><path
     fill="none"
     stroke="rgb(179,179,179)"
     stroke-linejoin="round"
     d="M 1659,1271 L 1802,1271"
     id="path80" /><path
     fill="none"
     stroke="rgb(179,179,179)"
     stroke-linejoin="round"
     d="M 1802,6860 L 1802,1272"
     id="path82" /><path
     fill="rgb(0,69,134)"
     stroke="none"
     d="M 10420,6860 L 10771,6860 10771,6840 10420,6840 10420,6860 Z"
     id="path84" /><path
     fill="rgb(0,69,134)"
     stroke="none"
     d="M 9013,6860 L 9365,6860 9365,6720 9013,6720 9013,6860 Z"
     id="path86" /><path
     fill="rgb(0,69,134)"
     stroke="none"
     d="M 7606,6860 L 7958,6860 7958,6600 7606,6600 7606,6860 Z"
     id="path88" /><path
     fill="rgb(0,69,134)"
     stroke="none"
     d="M 6199,6860 L 6551,6860 6551,5300 6199,5300 6199,6860 Z"
     id="path90" /><path
     fill="rgb(0,69,134)"
     stroke="none"
     d="M 4792,6860 L 5144,6860 5144,1563 4792,1563 4792,6860 Z"
     id="path92" /><path
     fill="rgb(0,69,134)"
     stroke="none"
     d="M 3384,6860 L 3736,6860 3736,4881 3384,4881 3384,6860 Z"
     id="path94" /><path
     fill="rgb(0,69,134)"
     stroke="none"
     d="M 1978,6860 L 2330,6860 2330,6800 1978,6800 1978,6860 Z"
     id="path96" /><path
     fill="rgb(255,66,14)"
     stroke="none"
     d="M 9365,6860 L 9717,6860 9717,6725 9365,6725 9365,6860 Z"
     id="path98" /><path
     fill="rgb(255,66,14)"
     stroke="none"
     d="M 7958,6860 L 8309,6860 8309,6592 7958,6592 7958,6860 Z"
     id="path100" /><path
     fill="rgb(255,66,14)"
     stroke="none"
     d="M 6551,6860 L 6902,6860 6902,4832 6551,4832 6551,6860 Z"
     id="path102" /><path
     fill="rgb(255,66,14)"
     stroke="none"
     d="M 5144,6860 L 5495,6860 5495,2270 5144,2270 5144,6860 Z"
     id="path104" /><path
     fill="rgb(255,66,14)"
     stroke="none"
     d="M 3736,6860 L 4088,6860 4088,4660 3736,4660 3736,6860 Z"
     id="path106" /><path
     fill="rgb(255,66,14)"
     stroke="none"
     d="M 2330,6860 L 2682,6860 2682,6764 2330,6764 2330,6860 Z"
     id="path108" /><path
     fill="rgb(255,211,32)"
     stroke="none"
     d="M 11123,6860 L 11475,6860 11475,6838 11123,6838 11123,6860 Z"
     id="path110" /><path
     fill="rgb(255,211,32)"
     stroke="none"
     d="M 9717,6860 L 10069,6860 10069,6598 9717,6598 9717,6860 Z"
     id="path112" /><path
     fill="rgb(255,211,32)"
     stroke="none"
     d="M 8309,6860 L 8661,6860 8661,6205 8309,6205 8309,6860 Z"
     id="path114" /><path
     fill="rgb(255,211,32)"
     stroke="none"
     d="M 6902,6860 L 7254,6860 7254,5092 6902,5092 6902,6860 Z"
     id="path116" /><path
     fill="rgb(255,211,32)"
     stroke="none"
     d="M 5495,6860 L 5847,6860 5847,3741 5495,3741 5495,6860 Z"
     id="path118" /><path
     fill="rgb(255,211,32)"
     stroke="none"
     d="M 4088,6860 L 4440,6860 4440,3479 4088,3479 4088,6860 Z"
     id="path120" /><path
     fill="rgb(255,211,32)"
     stroke="none"
     d="M 2682,6860 L 3034,6860 3034,6751 2682,6751 2682,6860 Z"
     id="path122" /><text
     class="TextShape"
     id="text130"><tspan
       class="TextParagraph"
       font-family="Liberation Sans, sans-serif"
       font-size="353px"
       font-weight="400"
       id="tspan128"><tspan
         class="TextPosition"
         x="529"
         y="6981"
         id="tspan126"><tspan
           fill="rgb(0,0,0)"
           stroke="none"
           id="tspan124">0,00 %</tspan></tspan></tspan></text>
<text
     class="TextShape"
     id="text138"><tspan
       class="TextParagraph"
       font-family="Liberation Sans, sans-serif"
       font-size="353px"
       font-weight="400"
       id="tspan136"><tspan
         class="TextPosition"
         x="353"
         y="6049"
         id="tspan134"><tspan
           fill="rgb(0,0,0)"
           stroke="none"
           id="tspan132">10,00 %</tspan></tspan></tspan></text>
<text
     class="TextShape"
     id="text146"><tspan
       class="TextParagraph"
       font-family="Liberation Sans, sans-serif"
       font-size="353px"
       font-weight="400"
       id="tspan144"><tspan
         class="TextPosition"
         x="353"
         y="5118"
         id="tspan142"><tspan
           fill="rgb(0,0,0)"
           stroke="none"
           id="tspan140">20,00 %</tspan></tspan></tspan></text>
<text
     class="TextShape"
     id="text154"><tspan
       class="TextParagraph"
       font-family="Liberation Sans, sans-serif"
       font-size="353px"
       font-weight="400"
       id="tspan152"><tspan
         class="TextPosition"
         x="353"
         y="4186"
         id="tspan150"><tspan
           fill="rgb(0,0,0)"
           stroke="none"
           id="tspan148">30,00 %</tspan></tspan></tspan></text>
<text
     class="TextShape"
     id="text162"><tspan
       class="TextParagraph"
       font-family="Liberation Sans, sans-serif"
       font-size="353px"
       font-weight="400"
       id="tspan160"><tspan
         class="TextPosition"
         x="353"
         y="3254"
         id="tspan158"><tspan
           fill="rgb(0,0,0)"
           stroke="none"
           id="tspan156">40,00 %</tspan></tspan></tspan></text>
<text
     class="TextShape"
     id="text170"><tspan
       class="TextParagraph"
       font-family="Liberation Sans, sans-serif"
       font-size="353px"
       font-weight="400"
       id="tspan168"><tspan
         class="TextPosition"
         x="353"
         y="2323"
         id="tspan166"><tspan
           fill="rgb(0,0,0)"
           stroke="none"
           id="tspan164">50,00 %</tspan></tspan></tspan></text>
<text
     class="TextShape"
     id="text178"><tspan
       class="TextParagraph"
       font-family="Liberation Sans, sans-serif"
       font-size="353px"
       font-weight="400"
       id="tspan176"><tspan
         class="TextPosition"
         x="353"
         y="1391"
         id="tspan174"><tspan
           fill="rgb(0,0,0)"
           stroke="none"
           id="tspan172">60,00 %</tspan></tspan></tspan></text>
<text
     class="TextShape"
     id="text186"
     x="199.56808"
     y="-75.862305"
     style="font-size:11.13957691px;stroke-width:26.1984272"><tspan
       class="TextParagraph"
       font-size="459px"
       font-weight="400"
       id="tspan184"
       style="font-weight:400;font-size:426.08880615px;font-family:'Liberation Sans', sans-serif;stroke-width:26.1984272"><tspan
         class="TextPosition"
         x="273.83191"
         y="713.19104"
         id="tspan182"
         style="stroke-width:26.1984272"><tspan
           id="tspan180"
           style="fill:#000000;stroke:none;stroke-width:26.1984272">Combien seriez-vous prêt à payer en plus pour un ordinateur portable modulaire ? </tspan></tspan></tspan></text>
<path
     fill="rgb(0,69,134)"
     stroke="none"
     d="M 12167,4100 L 12066,4100 12066,3889 12268,3889 12268,4100 12167,4100 Z"
     id="path188" /><path
     fill="rgb(255,66,14)"
     stroke="none"
     d="M 12167,4597 L 12066,4597 12066,4387 12268,4387 12268,4597 12167,4597 Z"
     id="path190" /><path
     fill="rgb(255,211,32)"
     stroke="none"
     d="M 12167,5095 L 12066,5095 12066,4884 12268,4884 12268,5095 12167,5095 Z"
     id="path192" /><text
     class="TextShape"
     id="text200"><tspan
       class="TextParagraph"
       font-family="Liberation Sans, sans-serif"
       font-size="353px"
       font-weight="400"
       id="tspan198"><tspan
         class="TextPosition"
         x="12363"
         y="4114"
         id="tspan196"><tspan
           fill="rgb(0,0,0)"
           stroke="none"
           id="tspan194">Netbook</tspan></tspan></tspan></text>
<text
     class="TextShape"
     id="text208"><tspan
       class="TextParagraph"
       font-family="Liberation Sans, sans-serif"
       font-size="353px"
       font-weight="400"
       id="tspan206"><tspan
         class="TextPosition"
         x="12363"
         y="4611"
         id="tspan204"><tspan
           fill="rgb(0,0,0)"
           stroke="none"
           id="tspan202">Moyenne gamme </tspan></tspan></tspan></text>
<text
     class="TextShape"
     id="text216"><tspan
       class="TextParagraph"
       font-family="Liberation Sans, sans-serif"
       font-size="353px"
       font-weight="400"
       id="tspan214"><tspan
         class="TextPosition"
         x="12363"
         y="5109"
         id="tspan212"><tspan
           fill="rgb(0,0,0)"
           stroke="none"
           id="tspan210">Haute gamme</tspan></tspan></tspan></text>
</svg>