<?xml version="1.0" encoding="UTF-8"?>
<!DOCTYPE svg PUBLIC "-//W3C//DTD SVG 1.1//EN" "http://www.w3.org/Graphics/SVG/1.1/DTD/svg11.dtd">
<svg width="134mm" height="90mm" viewBox="0 0 13400 9000" version="1.1" xmlns="http://www.w3.org/2000/svg" stroke-width="28.222" stroke-linejoin="round" xml:space="preserve">
 <path fill="rgb(255,255,255)" stroke="none" d="M 6685,8980 L 0,8980 0,0 13369,0 13369,8980 6685,8980 Z"/>
 <path fill="rgb(102,0,51)" stroke="none" d="M 5273,1958 C 4942,1958 4614,2010 4299,2112 3985,2214 3688,2365 3421,2559 3153,2754 2918,2989 2723,3257 2718,3264 2713,3270 2708,3277 L 5273,5108 5273,5108 5273,5108 5273,5108 5273,5108 5273,1958 Z"/>
 <path fill="rgb(0,102,153)" stroke="none" d="M 2708,3277 C 2521,3540 2375,3829 2276,4135 2174,4450 2122,4777 2122,5108 2122,5439 2174,5767 2276,6082 2378,6396 2529,6693 2723,6960 2918,7228 3153,7463 3421,7658 3688,7852 3985,8003 4299,8105 4614,8207 4942,8260 5273,8260 5604,8260 5932,8207 6247,8105 6561,8003 6857,7852 7124,7658 7392,7463 7627,7228 7822,6960 8006,6707 8151,6427 8253,6131 L 5273,5108 5273,5108 5273,5108 5273,5108 5273,5108 5273,5108 5273,5108 5273,5108 5273,5108 5273,5108 5273,5108 5273,5108 2708,3277 Z"/>
 <path fill="rgb(153,153,255)" stroke="none" d="M 8253,6131 C 8259,6114 8264,6098 8269,6082 8371,5767 8424,5439 8424,5108 8424,4777 8371,4450 8269,4135 8167,3821 8016,3524 7822,3257 7627,2989 7392,2754 7124,2559 6857,2365 6561,2214 6247,2112 5932,2010 5604,1958 5273,1958 L 5273,5108 5273,5108 5273,5108 5273,5108 5273,5108 5273,5108 5273,5108 5273,5108 8253,6131 Z"/>
 <text class="TextShape"><tspan class="TextParagraph" font-family="Liberation Sans, sans-serif" font-size="423px" font-weight="700"><tspan class="TextPosition" x="3108" y="3301"><tspan fill="rgb(255,255,255)" stroke="none">15,13 %</tspan></tspan></tspan></text>
 <text class="TextShape"><tspan class="TextParagraph" font-family="Liberation Sans, sans-serif" font-size="423px" font-weight="700"><tspan class="TextPosition" x="3108" y="7208"><tspan fill="rgb(255,255,255)" stroke="none">54,61 %</tspan></tspan></tspan></text>
 <text class="TextShape"><tspan class="TextParagraph" font-family="Liberation Sans, sans-serif" font-size="423px" font-weight="700"><tspan class="TextPosition" x="6483" y="4213"><tspan fill="rgb(255,255,255)" stroke="none">30,26 %</tspan></tspan></tspan></text>
 <text class="TextShape"><tspan class="TextParagraph" font-family="Liberation Sans, sans-serif" font-size="459px" font-weight="400"><tspan class="TextPosition" x="2795" y="850"><tspan fill="rgb(0,0,0)" stroke="none">Quel(s) gamme(s) de PC utilisez-vous ? </tspan></tspan></tspan></text>
 <path fill="rgb(102,0,51)" stroke="none" d="M 9539,3426 L 9433,3426 9433,3215 9644,3215 9644,3426 9539,3426 Z"/>
 <path fill="rgb(0,102,153)" stroke="none" d="M 9539,4257 L 9433,4257 9433,4046 9644,4046 9644,4257 9539,4257 Z"/>
 <path fill="rgb(153,153,255)" stroke="none" d="M 9539,5484 L 9433,5484 9433,5273 9644,5273 9644,5484 9539,5484 Z"/>
 <text class="TextShape"><tspan class="TextParagraph" font-family="Liberation Sans, sans-serif" font-size="353px" font-weight="400"><tspan class="TextPosition" x="9744" y="3440"><tspan fill="rgb(0,0,0)" stroke="none">Netbook</tspan></tspan></tspan></text>
 <text class="TextShape"><tspan class="TextParagraph" font-family="Liberation Sans, sans-serif" font-size="353px" font-weight="400"><tspan class="TextPosition" x="9744" y="4271"><tspan fill="rgb(0,0,0)" stroke="none">Milieu de </tspan></tspan><tspan class="TextPosition" x="9744" y="4667"><tspan fill="rgb(0,0,0)" stroke="none">gamme</tspan></tspan></tspan></text>
 <text class="TextShape"><tspan class="TextParagraph" font-family="Liberation Sans, sans-serif" font-size="353px" font-weight="400"><tspan class="TextPosition" x="9744" y="5498"><tspan fill="rgb(0,0,0)" stroke="none">Haut de </tspan></tspan><tspan class="TextPosition" x="9744" y="5895"><tspan fill="rgb(0,0,0)" stroke="none">gamme</tspan></tspan></tspan></text>
</svg>