<?xml version="1.0" encoding="UTF-8"?>
<!DOCTYPE svg PUBLIC "-//W3C//DTD SVG 1.1//EN" "http://www.w3.org/Graphics/SVG/1.1/DTD/svg11.dtd">
<svg width="156mm" height="106mm" viewBox="0 0 15600 10600" version="1.1" xmlns="http://www.w3.org/2000/svg" stroke-width="28.222" stroke-linejoin="round" xml:space="preserve">
 <path fill="rgb(255,255,255)" stroke="none" d="M 7787,10577 L 0,10577 0,0 15573,0 15573,10577 7787,10577 Z"/>
 <path fill="none" stroke="rgb(179,179,179)" stroke-linejoin="round" d="M 8547,9719 L 1832,9719 1832,1537 15262,1537 15262,9719 8547,9719 Z"/>
 <path fill="none" stroke="rgb(179,179,179)" stroke-linejoin="round" d="M 15262,9718 L 1832,9718"/>
 <path fill="none" stroke="rgb(179,179,179)" stroke-linejoin="round" d="M 15262,8808 L 1832,8808"/>
 <path fill="none" stroke="rgb(179,179,179)" stroke-linejoin="round" d="M 15262,7899 L 1832,7899"/>
 <path fill="none" stroke="rgb(179,179,179)" stroke-linejoin="round" d="M 15262,6990 L 1832,6990"/>
 <path fill="none" stroke="rgb(179,179,179)" stroke-linejoin="round" d="M 15262,6081 L 1832,6081"/>
 <path fill="none" stroke="rgb(179,179,179)" stroke-linejoin="round" d="M 15262,5172 L 1832,5172"/>
 <path fill="none" stroke="rgb(179,179,179)" stroke-linejoin="round" d="M 15262,4263 L 1832,4263"/>
 <path fill="none" stroke="rgb(179,179,179)" stroke-linejoin="round" d="M 15262,3354 L 1832,3354"/>
 <path fill="none" stroke="rgb(179,179,179)" stroke-linejoin="round" d="M 15262,2445 L 1832,2445"/>
 <path fill="none" stroke="rgb(179,179,179)" stroke-linejoin="round" d="M 15262,1535 L 1832,1535"/>
 <path fill="none" stroke="rgb(179,179,179)" stroke-linejoin="round" d="M 1832,9868 L 1832,9718"/>
 <path fill="none" stroke="rgb(179,179,179)" stroke-linejoin="round" d="M 1832,9868 L 1832,9718"/>
 <path fill="none" stroke="rgb(179,179,179)" stroke-linejoin="round" d="M 6309,9868 L 6309,9718"/>
 <path fill="none" stroke="rgb(179,179,179)" stroke-linejoin="round" d="M 6309,9868 L 6309,9718"/>
 <path fill="none" stroke="rgb(179,179,179)" stroke-linejoin="round" d="M 10785,9868 L 10785,9718"/>
 <path fill="none" stroke="rgb(179,179,179)" stroke-linejoin="round" d="M 10785,9868 L 10785,9718"/>
 <path fill="none" stroke="rgb(179,179,179)" stroke-linejoin="round" d="M 15262,9868 L 15262,9718"/>
 <path fill="none" stroke="rgb(179,179,179)" stroke-linejoin="round" d="M 15262,9868 L 15262,9718"/>
 <path fill="none" stroke="rgb(179,179,179)" stroke-linejoin="round" d="M 1832,9718 L 15262,9718"/>
 <path fill="none" stroke="rgb(179,179,179)" stroke-linejoin="round" d="M 1682,9718 L 1832,9718"/>
 <path fill="none" stroke="rgb(179,179,179)" stroke-linejoin="round" d="M 1682,9718 L 1832,9718"/>
 <path fill="none" stroke="rgb(179,179,179)" stroke-linejoin="round" d="M 1682,8808 L 1832,8808"/>
 <path fill="none" stroke="rgb(179,179,179)" stroke-linejoin="round" d="M 1682,8808 L 1832,8808"/>
 <path fill="none" stroke="rgb(179,179,179)" stroke-linejoin="round" d="M 1682,7899 L 1832,7899"/>
 <path fill="none" stroke="rgb(179,179,179)" stroke-linejoin="round" d="M 1682,7899 L 1832,7899"/>
 <path fill="none" stroke="rgb(179,179,179)" stroke-linejoin="round" d="M 1682,6990 L 1832,6990"/>
 <path fill="none" stroke="rgb(179,179,179)" stroke-linejoin="round" d="M 1682,6990 L 1832,6990"/>
 <path fill="none" stroke="rgb(179,179,179)" stroke-linejoin="round" d="M 1682,6081 L 1832,6081"/>
 <path fill="none" stroke="rgb(179,179,179)" stroke-linejoin="round" d="M 1682,6081 L 1832,6081"/>
 <path fill="none" stroke="rgb(179,179,179)" stroke-linejoin="round" d="M 1682,5172 L 1832,5172"/>
 <path fill="none" stroke="rgb(179,179,179)" stroke-linejoin="round" d="M 1682,5172 L 1832,5172"/>
 <path fill="none" stroke="rgb(179,179,179)" stroke-linejoin="round" d="M 1682,4263 L 1832,4263"/>
 <path fill="none" stroke="rgb(179,179,179)" stroke-linejoin="round" d="M 1682,4263 L 1832,4263"/>
 <path fill="none" stroke="rgb(179,179,179)" stroke-linejoin="round" d="M 1682,3354 L 1832,3354"/>
 <path fill="none" stroke="rgb(179,179,179)" stroke-linejoin="round" d="M 1682,3354 L 1832,3354"/>
 <path fill="none" stroke="rgb(179,179,179)" stroke-linejoin="round" d="M 1682,2445 L 1832,2445"/>
 <path fill="none" stroke="rgb(179,179,179)" stroke-linejoin="round" d="M 1682,2445 L 1832,2445"/>
 <path fill="none" stroke="rgb(179,179,179)" stroke-linejoin="round" d="M 1682,1535 L 1832,1535"/>
 <path fill="none" stroke="rgb(179,179,179)" stroke-linejoin="round" d="M 1682,1535 L 1832,1535"/>
 <path fill="none" stroke="rgb(179,179,179)" stroke-linejoin="round" d="M 1832,9718 L 1832,1535"/>
 <path fill="rgb(0,69,134)" stroke="none" d="M 11904,9718 L 14142,9718 14142,9127 11904,9127 11904,9718 Z"/>
 <path fill="rgb(0,69,134)" stroke="none" d="M 7428,9718 L 9665,9718 9665,6990 7428,6990 7428,9718 Z"/>
 <path fill="rgb(0,69,134)" stroke="none" d="M 2951,9718 L 5189,9718 5189,2158 2951,2158 2951,9718 Z"/>
 <text class="TextShape"><tspan class="TextParagraph" font-family="Liberation Sans, sans-serif" font-size="353px" font-weight="400"><tspan class="TextPosition" x="3236" y="10286"><tspan fill="rgb(0,0,0)" stroke="none">GNU/Linux</tspan></tspan></tspan></text>
 <text class="TextShape"><tspan class="TextParagraph" font-family="Liberation Sans, sans-serif" font-size="353px" font-weight="400"><tspan class="TextPosition" x="7846" y="10286"><tspan fill="rgb(0,0,0)" stroke="none">Windows</tspan></tspan></tspan></text>
 <text class="TextShape"><tspan class="TextParagraph" font-family="Liberation Sans, sans-serif" font-size="353px" font-weight="400"><tspan class="TextPosition" x="12680" y="10286"><tspan fill="rgb(0,0,0)" stroke="none">OSX</tspan></tspan></tspan></text>
 <text class="TextShape"><tspan class="TextParagraph" font-family="Liberation Sans, sans-serif" font-size="353px" font-weight="400"><tspan class="TextPosition" x="497" y="9839"><tspan fill="rgb(0,0,0)" stroke="none">0,00 %</tspan></tspan></tspan></text>
 <text class="TextShape"><tspan class="TextParagraph" font-family="Liberation Sans, sans-serif" font-size="353px" font-weight="400"><tspan class="TextPosition" x="312" y="8929"><tspan fill="rgb(0,0,0)" stroke="none">10,00 %</tspan></tspan></tspan></text>
 <text class="TextShape"><tspan class="TextParagraph" font-family="Liberation Sans, sans-serif" font-size="353px" font-weight="400"><tspan class="TextPosition" x="312" y="8020"><tspan fill="rgb(0,0,0)" stroke="none">20,00 %</tspan></tspan></tspan></text>
 <text class="TextShape"><tspan class="TextParagraph" font-family="Liberation Sans, sans-serif" font-size="353px" font-weight="400"><tspan class="TextPosition" x="312" y="7111"><tspan fill="rgb(0,0,0)" stroke="none">30,00 %</tspan></tspan></tspan></text>
 <text class="TextShape"><tspan class="TextParagraph" font-family="Liberation Sans, sans-serif" font-size="353px" font-weight="400"><tspan class="TextPosition" x="312" y="6202"><tspan fill="rgb(0,0,0)" stroke="none">40,00 %</tspan></tspan></tspan></text>
 <text class="TextShape"><tspan class="TextParagraph" font-family="Liberation Sans, sans-serif" font-size="353px" font-weight="400"><tspan class="TextPosition" x="312" y="5292"><tspan fill="rgb(0,0,0)" stroke="none">50,00 %</tspan></tspan></tspan></text>
 <text class="TextShape"><tspan class="TextParagraph" font-family="Liberation Sans, sans-serif" font-size="353px" font-weight="400"><tspan class="TextPosition" x="312" y="4383"><tspan fill="rgb(0,0,0)" stroke="none">60,00 %</tspan></tspan></tspan></text>
 <text class="TextShape"><tspan class="TextParagraph" font-family="Liberation Sans, sans-serif" font-size="353px" font-weight="400"><tspan class="TextPosition" x="312" y="3474"><tspan fill="rgb(0,0,0)" stroke="none">70,00 %</tspan></tspan></tspan></text>
 <text class="TextShape"><tspan class="TextParagraph" font-family="Liberation Sans, sans-serif" font-size="353px" font-weight="400"><tspan class="TextPosition" x="312" y="2565"><tspan fill="rgb(0,0,0)" stroke="none">80,00 %</tspan></tspan></tspan></text>
 <text class="TextShape"><tspan class="TextParagraph" font-family="Liberation Sans, sans-serif" font-size="353px" font-weight="400"><tspan class="TextPosition" x="312" y="1655"><tspan fill="rgb(0,0,0)" stroke="none">90,00 %</tspan></tspan></tspan></text>
 <text class="TextShape"><tspan class="TextParagraph" font-family="Liberation Sans, sans-serif" font-size="423px" font-weight="700"><tspan class="TextPosition" x="3276" y="1979"><tspan fill="rgb(0,0,0)" stroke="none">83,16 %</tspan></tspan></tspan></text>
 <text class="TextShape"><tspan class="TextParagraph" font-family="Liberation Sans, sans-serif" font-size="423px" font-weight="700"><tspan class="TextPosition" x="7753" y="6811"><tspan fill="rgb(0,0,0)" stroke="none">30,00 %</tspan></tspan></tspan></text>
 <text class="TextShape"><tspan class="TextParagraph" font-family="Liberation Sans, sans-serif" font-size="423px" font-weight="700"><tspan class="TextPosition" x="12349" y="8948"><tspan fill="rgb(0,0,0)" stroke="none">6,49 %</tspan></tspan></tspan></text>
 <text class="TextShape"><tspan class="TextParagraph" font-family="Liberation Sans, sans-serif" font-size="459px" font-weight="400"><tspan class="TextPosition" x="4334" y="882"><tspan fill="rgb(0,0,0)" stroke="none">Votre ou vos systèmes d&apos;exploitation</tspan></tspan></tspan></text>
</svg>